<svg id="Layer_1" data-name="Layer 1" xmlns="http://www.w3.org/2000/svg" viewBox="0 0 398.92 86.94"><defs><style>.cls-1{fill:#033c57;}</style></defs><path class="cls-1" d="M44.89,61.82c0,12.12-6.54,23.48-18.66,23.48H0V.18H23.87c10.65,0,17.57,7.79,17.57,21C41.44,29.1,38.35,37,32.21,40,40.45,42.88,44.89,53.16,44.89,61.82ZM23.5,7.76H8.17V36.69H24.5c5.56,0,8.77-6.53,8.77-15S29.69,7.76,23.5,7.76ZM25,77.63c7.41,0,11.75-7.66,11.75-16.44,0-9.23-4.45-17.32-12.12-17.32H8.17V77.63Z" transform="translate(0 0.11)"/><path class="cls-1" d="M97.35,59.69H61.23c1,11.89,6.56,19.56,14.48,19.56,5.68,0,10.74-4.09,13.46-10.14l6.08,3c-3.84,9-11.27,14.71-20,14.71-12.6,0-21.89-12.24-21.89-30.67,0-18.06,9-30,22.52-30,13,0,21.63,11.13,21.63,30.18C97.46,57,97.35,58.4,97.35,59.69Zm-7.67-6.53C89.43,40.4,83.38,33.6,75.82,33.6c-8.29,0-13.72,7.8-14.71,19.56Z" transform="translate(0 0.11)"/><path class="cls-1" d="M128.15,27.55v6.93h-9.79V85.4h-7.69v-51h-7.78v-7h7.78V5.8h7.78V27.4Z" transform="translate(0 0.11)"/><path class="cls-1" d="M171.06,27.55h7.76V85.28H171v-10a17.58,17.58,0,0,1-16.56,11.55c-13,0-21.66-12.24-21.66-30.41s8.66-30.3,21.66-30.3A17.68,17.68,0,0,1,171,37.51Zm-.12,28.93c0-13.6-6.19-22.88-15.22-22.88s-15,9-15,22.77,5.93,22.88,15,22.88S170.94,70,170.94,56.48Z" transform="translate(0 0.11)"/><path class="cls-1" d="M223.82.18h18.47V85.4H226.36L210.89,40.87V85.4H192.6V.18h17.06l14.16,41.57Z" transform="translate(0 0.11)"/><path class="cls-1" d="M313.55,85.3H291.89l-11-29L269.63,85.3h-21.5l22-45.38L249.47.18h22.29l9,23.63L290,.18h22l-20.64,40Z" transform="translate(0 0.11)"/><path class="cls-1" d="M363.27.18V16.4H347.93V85.53H329.62V16.16H314.18V0Z" transform="translate(0 0.11)"/><path class="cls-1" d="M373.74,12.37h1.59c.1,2,1.18,3.2,2.65,3.2,1.64,0,2.67-1.35,2.67-3.22a3,3,0,0,0-2-3.06l-1.84-.66a4.24,4.24,0,0,1-2.94-4.21c0-2.63,1.62-4.53,4.05-4.53s3.91,1.85,3.95,4.5h-1.59c0-1.8-1-3-2.38-3s-2.43,1.3-2.43,3a2.76,2.76,0,0,0,1.78,2.75l1.9.69a4.43,4.43,0,0,1,3.13,4.44c0,2.77-1.68,4.77-4.26,4.77C375.57,17.07,373.83,15.24,373.74,12.37Z" transform="translate(0 0.11)"/><path class="cls-1" d="M398.92,16.78H397.3L396.1,3.5l-3.88,11.57H390.7L386.77,3.38l-1.2,13.4H384L385.52.18h1.69l4.24,12.74L395.66.18h1.69Z" transform="translate(0 0.11)"/></svg>